<?xml version="1.0" encoding="UTF-8"?>
<svg xmlns="http://www.w3.org/2000/svg" xmlns:xlink="http://www.w3.org/1999/xlink" width="200px" height="32px" viewBox="0 0 198 32" version="1.1">
<g id="surface1">
<path style=" stroke:none;fill-rule:nonzero;fill:rgb(2.745098%,9.411765%,31.372549%);fill-opacity:1;" d="M 11.695312 5.957031 C 14.382812 5.957031 16.609375 6.648438 18.382812 8.035156 C 20.152344 9.421875 21.324219 11.308594 21.894531 13.695312 L 17.375 13.695312 C 16.90625 12.53125 16.171875 11.613281 15.175781 10.941406 C 14.199219 10.269531 13.015625 9.933594 11.632812 9.933594 C 10.492188 9.933594 9.464844 10.21875 8.550781 10.789062 C 7.632812 11.359375 6.921875 12.175781 6.410156 13.234375 C 5.902344 14.296875 5.648438 15.539062 5.648438 16.96875 C 5.648438 18.375 5.902344 19.609375 6.410156 20.667969 C 6.921875 21.730469 7.632812 22.542969 8.550781 23.117188 C 9.464844 23.6875 10.492188 23.972656 11.632812 23.972656 C 13.015625 23.972656 14.199219 23.636719 15.175781 22.960938 C 16.171875 22.289062 16.90625 21.371094 17.375 20.210938 L 21.894531 20.210938 C 21.324219 22.59375 20.152344 24.480469 18.382812 25.867188 C 16.609375 27.253906 14.382812 27.949219 11.695312 27.949219 C 9.636719 27.949219 7.816406 27.488281 6.230469 26.570312 C 4.660156 25.632812 3.441406 24.328125 2.566406 22.65625 C 1.710938 20.984375 1.28125 19.085938 1.28125 16.96875 C 1.28125 14.824219 1.710938 12.917969 2.566406 11.246094 C 3.441406 9.574219 4.660156 8.28125 6.230469 7.363281 C 7.796875 6.425781 9.617188 5.957031 11.695312 5.957031 Z M 29.429688 24.460938 L 36.664062 24.460938 L 36.664062 27.765625 L 25.121094 27.765625 L 25.121094 6.167969 L 29.429688 6.167969 Z M 43.53125 9.59375 L 43.53125 15.191406 L 51.164062 15.191406 L 51.164062 18.496094 L 43.53125 18.496094 L 43.53125 24.308594 L 52.082031 24.308594 L 52.082031 27.765625 L 39.226562 27.765625 L 39.226562 6.167969 L 52.082031 6.167969 L 52.082031 9.59375 Z M 68.398438 23.421875 L 59.757812 23.421875 L 58.230469 27.765625 L 53.679688 27.765625 L 61.621094 6.414062 L 66.535156 6.414062 L 74.445312 27.765625 L 69.894531 27.765625 Z M 67.238281 20.148438 L 64.0625 11.03125 L 60.886719 20.148438 Z M 95.027344 27.765625 L 90.722656 27.765625 L 81.074219 13.082031 L 81.074219 27.765625 L 76.769531 27.765625 L 76.769531 6.167969 L 81.074219 6.167969 L 90.722656 20.972656 L 90.722656 6.167969 L 95.027344 6.167969 Z M 116.785156 6.167969 L 116.785156 27.765625 L 112.449219 27.765625 L 112.449219 18.375 L 103.226562 18.375 L 103.226562 27.765625 L 98.921875 27.765625 L 98.921875 6.167969 L 103.226562 6.167969 L 103.226562 14.917969 L 112.449219 14.917969 L 112.449219 6.167969 Z M 151.59375 24.460938 L 158.828125 24.460938 L 158.828125 27.765625 L 147.289062 27.765625 L 147.289062 6.167969 L 151.59375 6.167969 Z M 165.695312 6.167969 L 165.695312 27.765625 L 161.390625 27.765625 L 161.390625 6.167969 Z M 179.332031 5.957031 C 182.019531 5.957031 184.246094 6.648438 186.019531 8.035156 C 187.789062 9.421875 188.960938 11.308594 189.53125 13.695312 L 185.011719 13.695312 C 184.542969 12.53125 183.808594 11.613281 182.8125 10.941406 C 181.835938 10.269531 180.65625 9.933594 179.269531 9.933594 C 178.132812 9.933594 177.101562 10.21875 176.1875 10.789062 C 175.269531 11.359375 174.558594 12.175781 174.050781 13.234375 C 173.539062 14.296875 173.285156 15.539062 173.285156 16.96875 C 173.285156 18.375 173.539062 19.609375 174.050781 20.667969 C 174.558594 21.730469 175.269531 22.542969 176.1875 23.117188 C 177.101562 23.6875 178.132812 23.972656 179.269531 23.972656 C 180.65625 23.972656 181.835938 23.636719 182.8125 22.960938 C 183.808594 22.289062 184.542969 21.371094 185.011719 20.210938 L 189.53125 20.210938 C 188.960938 22.59375 187.789062 24.480469 186.019531 25.867188 C 184.246094 27.253906 182.019531 27.949219 179.332031 27.949219 C 177.277344 27.949219 175.453125 27.488281 173.867188 26.570312 C 172.300781 25.632812 171.078125 24.328125 170.203125 22.65625 C 169.347656 20.984375 168.921875 19.085938 168.921875 16.96875 C 168.921875 14.824219 169.347656 12.917969 170.203125 11.246094 C 171.078125 9.574219 172.300781 8.28125 173.867188 7.363281 C 175.433594 6.425781 177.253906 5.957031 179.332031 5.957031 Z M 179.332031 5.957031 "/>
<path style="fill:none;stroke-width:9;stroke-linecap:butt;stroke-linejoin:miter;stroke:rgb(2.745098%,9.411765%,31.372549%);stroke-opacity:1;stroke-miterlimit:4;" d="M 613.506688 72.000977 C 613.506688 101.551758 589.541193 125.507812 560.004261 125.507812 C 530.450698 125.507812 506.501835 101.551758 506.501835 72.000977 C 506.501835 42.450195 530.450698 18.494141 560.004261 18.494141 C 589.541193 18.494141 613.506688 42.450195 613.506688 72.000977 Z M 613.506688 72.000977 " transform="matrix(0.234875,0,0,0.235294,0,0)"/>
<path style="fill:none;stroke-width:4;stroke-linecap:butt;stroke-linejoin:miter;stroke:rgb(2.745098%,9.411765%,31.372549%);stroke-opacity:1;stroke-miterlimit:4;" d="M 602.147609 72.432617 C 602.147609 95.475586 583.470821 114.152344 560.436671 114.152344 C 537.38589 114.152344 518.709103 95.475586 518.709103 72.432617 C 518.709103 49.389648 537.38589 30.712891 560.436671 30.712891 C 583.470821 30.712891 602.147609 49.389648 602.147609 72.432617 Z M 602.147609 72.432617 " transform="matrix(0.234875,0,0,0.235294,0,0)"/>
<path style="fill:none;stroke-width:5;stroke-linecap:butt;stroke-linejoin:miter;stroke:rgb(2.745098%,9.411765%,31.372549%);stroke-opacity:1;stroke-miterlimit:4;" d="M 601.981297 68.53125 C 598.239287 65.360352 587.878078 57.109375 576.452474 66.804688 C 562.166312 78.923828 560.004261 88.021484 542.691229 83.688477 C 528.837476 80.21875 524.796106 89.748047 521.902285 88.453125 " transform="matrix(0.234875,0,0,0.235294,0,0)"/>
<path style=" stroke:none;fill-rule:nonzero;fill:rgb(2.745098%,9.411765%,31.372549%);fill-opacity:1;" d="M 128.683594 21.828125 L 129.902344 21.828125 L 129.902344 23.050781 L 128.683594 23.050781 Z M 128.683594 21.828125 "/>
<path style=" stroke:none;fill-rule:nonzero;fill:rgb(2.745098%,9.411765%,31.372549%);fill-opacity:1;" d="M 136.410156 18.570312 L 137.628906 18.570312 L 137.628906 19.792969 L 136.410156 19.792969 Z M 136.410156 18.570312 "/>
<path style=" stroke:none;fill-rule:nonzero;fill:rgb(2.745098%,9.411765%,31.372549%);fill-opacity:1;" d="M 134.171875 23.050781 L 135.394531 23.050781 L 135.394531 24.273438 L 134.171875 24.273438 Z M 134.171875 23.050781 "/>
</g>
</svg>
