<svg id="Layer_1" data-name="Layer 1" xmlns="http://www.w3.org/2000/svg" viewBox="0 0 1920 1080"><defs><style>.cls-1{fill:#191e4e;}.cls-2,.cls-3,.cls-4{fill:none;stroke:#191e4e;}.cls-2{stroke-width:9px;}.cls-3{stroke-width:4px;}.cls-4{stroke-width:5px;}</style></defs><path class="cls-1" d="M17.36,408.4q15.39,12.78,19,29.13t-4.5,32.69L14.56,455.9a29.17,29.17,0,0,0,.31-17.46q-2.4-8.49-10.32-15.08a28.45,28.45,0,0,0-14.49-6.51,28.37,28.37,0,0,0-15.9,2.56,42.05,42.05,0,0,0-14.72,11.8,41.86,41.86,0,0,0-8.8,16.52,28.33,28.33,0,0,0,.42,16.1,28.36,28.36,0,0,0,9.06,13q7.93,6.58,16.72,7.38a29.17,29.17,0,0,0,17.1-3.52L11.2,495.05Q-3.39,506-20.11,505.49t-32.12-13.27Q-64,482.44-68.74,469.65a48.15,48.15,0,0,1-1.6-26.53,60.93,60.93,0,0,1,13.11-25.75q10.15-12.24,23-17.74A47.16,47.16,0,0,1-8,396.44Q5.46,398.54,17.36,408.4Zm9.15,126.74,27.63,22.94L43.69,570.67-.38,534.08,68,451.78l16.44,13.65Zm100.88-11.95-17.71,21.33,29.15,24.2-10.45,12.59-29.15-24.2L80.84,579.26l32.64,27.1-10.93,13.17L53.47,578.79l68.33-82.3,49.07,40.74L160,550.29Zm51.2,131.51-33-27.39L126,639,108.66,624.6l97.86-56.2L225.29,584,187.93,690.41,170.56,676Zm5.92-16.15,16.72-44.81-41,24.68Zm82,117.1L250.07,742l9.62-86.54-46.46,55.95L196.8,697.78l68.32-82.3,16.44,13.64-10,87L318.4,659.7l16.44,13.65ZM417.9,742.32l-68.32,82.3L333,810.87l29.72-35.78-35.21-29.23-29.71,35.79L281.38,768l68.33-82.3,16.44,13.65-27.68,33.34,35.2,29.22,27.68-33.34Zm75,180,27.63,22.94L510.1,957.88,466,921.3,534.36,839l16.44,13.64Zm111.72-25-68.32,82.3L519.88,966l68.33-82.3Zm52.74,42.4q15.39,12.76,19,29.12t-4.5,32.7l-17.25-14.33a29.17,29.17,0,0,0,.31-17.46q-2.4-8.49-10.33-15.07a27.89,27.89,0,0,0-30.38-4,42.17,42.17,0,0,0-14.72,11.8,41.7,41.7,0,0,0-8.8,16.53,27.91,27.91,0,0,0,9.48,29.14q7.93,6.57,16.72,7.38a29.18,29.18,0,0,0,17.1-3.53l17.25,14.33q-14.58,10.92-31.31,10.43t-32.11-13.27A53.28,53.28,0,0,1,571.28,1001a48.18,48.18,0,0,1-1.6-26.54,61,61,0,0,1,13.11-25.75q10.15-12.24,23-17.73a47.07,47.07,0,0,1,26.28-3.19Q645.49,929.88,657.38,939.75Z"/><circle class="cls-2" cx="440.12" cy="830.1" r="62.35"/><circle class="cls-3" cx="440.18" cy="830.81" r="48.62" transform="translate(-458.55 554.6) rotate(-45)"/><path class="cls-4" d="M480.34,858.25c-1-5.63-4.14-20.75-21.61-20.56-21.83.23-30.53,6.77-42.84-10-9.84-13.41-20.55-7.88-22.17-11.19"/><rect class="cls-1" x="411.15" y="840.95" width="6.05" height="6.05" transform="translate(-499.74 623.55) rotate(-50.3)"/><rect class="cls-1" x="450.96" y="853.02" width="6.05" height="6.05" transform="translate(-494.65 658.54) rotate(-50.3)"/><rect class="cls-1" x="428.24" y="863" width="6.05" height="6.05" transform="translate(-510.54 644.67) rotate(-50.3)"/><path class="cls-1" d="M371.1,430.85q15.39,12.76,18.95,29.12t-4.49,32.7L368.3,478.34a29.17,29.17,0,0,0,.32-17.46q-2.4-8.49-10.33-15.07a27.9,27.9,0,0,0-30.39-4,42.34,42.34,0,0,0-14.72,11.8,41.8,41.8,0,0,0-8.79,16.53,27.86,27.86,0,0,0,9.48,29.14q7.92,6.57,16.71,7.38a29.23,29.23,0,0,0,17.11-3.53l17.25,14.33q-14.58,10.92-31.31,10.43t-32.11-13.27Q289.75,504.9,285,492.1a48.09,48.09,0,0,1-1.6-26.54,60.91,60.91,0,0,1,13.1-25.75q10.17-12.24,23-17.73a47.07,47.07,0,0,1,26.28-3.19Q359.22,421,371.1,430.85Zm9.16,126.73,27.63,22.94-10.46,12.59-44.06-36.58,68.33-82.3,16.43,13.64Zm100.88-12L463.43,567l29.14,24.19-10.45,12.59L453,579.56l-18.39,22.15,32.64,27.09L456.29,642l-49.07-40.75,68.32-82.3,49.08,40.75-10.84,13.05Zm51.19,131.51-33-27.39-19.57,11.72L462.4,647.05l97.86-56.21L579,606.42,541.67,712.86,524.3,698.44ZM538.26,661,555,616.19l-41,24.67Zm82,117.11-16.43-13.65,9.61-86.54-46.45,56-16.44-13.65,68.33-82.3,16.44,13.65-10,87,46.84-56.42,16.44,13.65Zm151.4-13.34-68.33,82.3-16.55-13.74,29.71-35.79-35.2-29.23-29.72,35.79-16.43-13.64,68.32-82.31,16.44,13.65-27.68,33.34,35.21,29.23L755.1,751Zm75,180,27.63,22.94-10.46,12.59-44.06-36.59,68.33-82.3,16.43,13.65Zm111.72-25-68.33,82.3-16.43-13.64L942,906.15Zm52.73,42.4q15.39,12.78,18.95,29.12t-4.5,32.7l-17.25-14.32a29.17,29.17,0,0,0,.32-17.46q-2.4-8.49-10.33-15.08a27.91,27.91,0,0,0-30.39-4,46.7,46.7,0,0,0-23.52,28.33,27.89,27.89,0,0,0,9.49,29.14q7.92,6.58,16.71,7.38a29.22,29.22,0,0,0,17.11-3.52l17.25,14.32q-14.58,10.94-31.31,10.44T941.54,1046q-11.77-9.78-16.51-22.57a48.08,48.08,0,0,1-1.6-26.54,60.82,60.82,0,0,1,13.1-25.74q10.17-12.24,23-17.74a47.09,47.09,0,0,1,26.28-3.19Q999.24,952.32,1011.12,962.19Z"/><circle class="cls-2" cx="793.86" cy="852.55" r="62.35"/><circle class="cls-3" cx="793.93" cy="853.26" r="48.62" transform="translate(-370.81 811.31) rotate(-45)"/><path class="cls-4" d="M834.09,880.7c-1-5.64-4.15-20.75-21.61-20.56-21.83.23-30.54,6.77-42.84-10-9.84-13.42-20.56-7.89-22.18-11.2"/><rect class="cls-1" x="764.9" y="863.39" width="6.05" height="6.05" transform="translate(-389.22 903.83) rotate(-50.3)"/><rect class="cls-1" x="804.71" y="875.46" width="6.05" height="6.05" transform="translate(-384.13 938.82) rotate(-50.3)"/><rect class="cls-1" x="781.99" y="885.45" width="6.05" height="6.05" transform="translate(-400.02 924.95) rotate(-50.3)"/><path class="cls-1" d="M758.18,457q15.39,12.78,19,29.12t-4.5,32.7l-17.25-14.32a29.17,29.17,0,0,0,.31-17.46q-2.4-8.5-10.33-15.08A27.89,27.89,0,0,0,715,468a42.2,42.2,0,0,0-14.72,11.81,41.73,41.73,0,0,0-8.8,16.52,27.91,27.91,0,0,0,9.48,29.14q7.93,6.59,16.72,7.38a29.17,29.17,0,0,0,17.1-3.52L752,543.64q-14.6,10.93-31.32,10.44t-32.11-13.27q-11.77-9.78-16.51-22.57a48.18,48.18,0,0,1-1.6-26.54A61,61,0,0,1,683.59,466q10.15-12.24,23-17.74A47.07,47.07,0,0,1,732.86,445Q746.28,447.12,758.18,457Zm9.15,126.74L795,606.66l-10.45,12.59-44.07-36.58,68.33-82.3L825.21,514Zm100.88-12L850.5,593.11l29.15,24.19-10.46,12.59L840.05,605.7l-18.39,22.15L854.3,655l-10.93,13.17-49.08-40.75,68.33-82.3,49.07,40.75-10.84,13Zm51.2,131.5-33-27.38-19.58,11.71-17.37-14.42L947.34,617l18.76,15.59L928.75,739l-17.37-14.42Zm5.92-16.15,16.72-44.8-41,24.67Zm82,117.11-16.44-13.65,9.62-86.53-46.46,56-16.43-13.64,68.32-82.31,16.44,13.65-10,87,46.84-56.42,16.43,13.65Zm151.39-13.34-68.32,82.3-16.56-13.74,29.72-35.79-35.21-29.22-29.71,35.78-16.44-13.64,68.33-82.3L1107,747.93l-27.68,33.34,35.2,29.23,27.68-33.34Zm75,180,27.63,22.94-10.45,12.59-44.07-36.58,68.33-82.31,16.44,13.65Zm111.72-25-68.32,82.31-16.44-13.65,68.33-82.3Zm52.74,42.41q15.39,12.76,19,29.12t-4.5,32.69l-17.26-14.32a29.09,29.09,0,0,0,.32-17.46q-2.4-8.49-10.33-15.07a27.89,27.89,0,0,0-30.38-4,42.28,42.28,0,0,0-14.73,11.8,41.83,41.83,0,0,0-8.79,16.52,27.89,27.89,0,0,0,9.48,29.14q7.93,6.59,16.72,7.38a29.11,29.11,0,0,0,17.1-3.52L1392,1075q-14.58,10.93-31.31,10.44t-32.11-13.27a53.25,53.25,0,0,1-16.51-22.57,48.14,48.14,0,0,1-1.6-26.53,61,61,0,0,1,13.1-25.75q10.17-12.24,23-17.73a47.08,47.08,0,0,1,26.28-3.2Q1386.3,978.47,1398.2,988.34Z"/><circle class="cls-2" cx="1180.94" cy="878.69" r="62.35"/><circle class="cls-3" cx="1181" cy="879.4" r="48.62" transform="translate(-275.92 1092.67) rotate(-45)"/><path class="cls-4" d="M1221.16,906.84c-1-5.64-4.14-20.75-21.61-20.56-21.83.23-30.54,6.77-42.84-10-9.84-13.42-20.55-7.88-22.17-11.2"/><rect class="cls-1" x="1151.97" y="889.53" width="6.05" height="6.05" transform="translate(-269.51 1211.09) rotate(-50.3)"/><rect class="cls-1" x="1191.78" y="901.6" width="6.05" height="6.05" transform="translate(-264.42 1246.08) rotate(-50.3)"/><rect class="cls-1" x="1169.06" y="911.59" width="6.05" height="6.05" transform="translate(-280.31 1232.21) rotate(-50.3)"/><path class="cls-1" d="M1001.17-117.45q15.39,12.77,19,29.12t-4.49,32.7L998.37-70a29.17,29.17,0,0,0,.32-17.46q-2.4-8.49-10.33-15.07A28.41,28.41,0,0,0,973.88-109,28.29,28.29,0,0,0,958-106.45a42.34,42.34,0,0,0-14.72,11.8,41.8,41.8,0,0,0-8.79,16.53,28.25,28.25,0,0,0,.41,16.1,28.43,28.43,0,0,0,9.07,13q7.92,6.57,16.71,7.38a29.23,29.23,0,0,0,17.11-3.53L995-30.8Q980.43-19.88,963.7-20.37T931.59-33.64A53.28,53.28,0,0,1,915.08-56.2a48.09,48.09,0,0,1-1.6-26.54,60.85,60.85,0,0,1,13.1-25.75q10.17-12.24,23-17.73a47.07,47.07,0,0,1,26.28-3.19Q989.28-127.33,1001.17-117.45Zm9.16,126.73L1038,32.22,1027.5,44.81,983.44,8.23l68.33-82.3,16.43,13.64ZM1111.21-2.67,1093.5,18.67l29.14,24.19-10.45,12.59-29.14-24.19L1064.66,53.4l32.64,27.1-10.94,13.18-49.07-40.75,68.32-82.3,49.08,40.74-10.84,13.06Zm51.19,131.51-33-27.39-19.57,11.72-17.37-14.42,97.86-56.21,18.77,15.58-37.36,106.44-17.37-14.42Zm5.93-16.15L1185,67.89l-41,24.67Zm82,117.11-16.43-13.65,9.61-86.54-46.45,56-16.44-13.65,68.33-82.3,16.44,13.65-10,87,46.84-56.42,16.44,13.64Zm151.4-13.34-68.33,82.3L1316.84,285l29.71-35.79L1311.35,220l-29.72,35.79-16.43-13.65,68.32-82.3L1350,173.49l-27.68,33.34,35.21,29.23,27.68-33.34Zm75,180,27.63,22.94L1493.91,432l-44.06-36.59,68.33-82.3,16.43,13.65Zm111.72-25-68.33,82.3-16.43-13.64L1572,357.84Zm52.73,42.4q15.39,12.78,19,29.12t-4.5,32.7l-17.25-14.32a29.17,29.17,0,0,0,.32-17.46q-2.4-8.51-10.33-15.08a27.9,27.9,0,0,0-30.39-4,46.7,46.7,0,0,0-23.52,28.33,27.89,27.89,0,0,0,9.49,29.14q7.92,6.58,16.71,7.38a29.22,29.22,0,0,0,17.11-3.52L1635,500.54q-14.58,10.93-31.31,10.44t-32.11-13.27q-11.77-9.78-16.51-22.57a48.08,48.08,0,0,1-1.6-26.54,60.82,60.82,0,0,1,13.1-25.74q10.17-12.24,23-17.74a47.09,47.09,0,0,1,26.28-3.19Q1629.31,404,1641.19,413.89Z"/><circle class="cls-2" cx="1423.93" cy="304.25" r="62.35"/><circle class="cls-3" cx="1424" cy="304.96" r="48.62" transform="translate(201.44 1096.24) rotate(-45)"/><path class="cls-4" d="M1464.16,332.4c-1-5.64-4.15-20.75-21.61-20.57-21.83.24-30.54,6.78-42.84-10-9.84-13.42-20.56-7.89-22.18-11.2"/><rect class="cls-1" x="1394.97" y="315.09" width="6.05" height="6.05" transform="translate(260.25 1190.54) rotate(-50.3)"/><rect class="cls-1" x="1434.78" y="327.16" width="6.05" height="6.05" transform="translate(265.34 1225.53) rotate(-50.3)"/><rect class="cls-1" x="1412.06" y="337.15" width="6.05" height="6.05" transform="translate(249.45 1211.66) rotate(-50.3)"/><path class="cls-1" d="M1307.43-125.07q15.38,12.78,18.94,29.12t-4.49,32.7l-17.26-14.32a29.17,29.17,0,0,0,.32-17.46q-2.4-8.5-10.33-15.08a28.41,28.41,0,0,0-14.48-6.51,28.29,28.29,0,0,0-15.91,2.55,42.38,42.38,0,0,0-14.72,11.81,41.83,41.83,0,0,0-8.79,16.52,28.25,28.25,0,0,0,.42,16.1,28.36,28.36,0,0,0,9.06,13q7.92,6.59,16.72,7.38a29.2,29.2,0,0,0,17.1-3.52l17.25,14.32Q1286.68-27.48,1270-28t-32.11-13.27q-11.77-9.78-16.51-22.57a48.08,48.08,0,0,1-1.6-26.54,60.93,60.93,0,0,1,13.1-25.74q10.17-12.24,23-17.74a47.07,47.07,0,0,1,26.28-3.19Q1295.53-134.94,1307.43-125.07Zm9.15,126.74,27.63,22.93-10.45,12.59L1289.69.61,1358-81.69,1374.45-68Zm100.88-11.95-17.71,21.33,29.14,24.19-10.45,12.59L1389.3,23.64l-18.39,22.15,32.64,27.1-10.94,13.17-49.07-40.74L1411.86-37l49.08,40.75L1450.1,16.81Zm51.19,131.5-33-27.38-19.57,11.71-17.37-14.42,97.86-56.21,18.77,15.59L1478,156.94l-17.37-14.42Zm5.93-16.15,16.72-44.8-41,24.67Zm82,117.11-16.43-13.65,9.61-86.53L1503.3,178l-16.44-13.64L1555.19,82l16.44,13.65-10,87,46.84-56.42,16.44,13.65ZM1708,208.84l-68.33,82.3-16.55-13.74,29.71-35.79-35.2-29.22-29.71,35.78-16.44-13.64,68.33-82.3,16.43,13.64-27.68,33.34,35.21,29.23,27.68-33.34Zm75,180,27.63,22.94-10.45,12.59-44.07-36.58,68.33-82.31,16.43,13.65Zm111.72-25-68.33,82.31L1810,432.53l68.32-82.3Zm52.73,42.41q15.39,12.77,19,29.12t-4.5,32.69l-17.25-14.32a29.17,29.17,0,0,0,.32-17.46q-2.4-8.49-10.33-15.07a27.9,27.9,0,0,0-30.39-4,42.34,42.34,0,0,0-14.72,11.8,41.83,41.83,0,0,0-8.79,16.52,27.85,27.85,0,0,0,9.48,29.14q7.92,6.58,16.71,7.38A29.14,29.14,0,0,0,1924,478.6l17.25,14.32q-14.58,10.93-31.31,10.44t-32.11-13.27a53.25,53.25,0,0,1-16.51-22.57,48,48,0,0,1-1.6-26.53,60.85,60.85,0,0,1,13.1-25.75q10.17-12.24,23-17.73a47.08,47.08,0,0,1,26.28-3.2Q1935.55,396.41,1947.44,406.28Z"/><circle class="cls-2" cx="1730.18" cy="296.63" r="62.35"/><circle class="cls-3" cx="1730.25" cy="297.34" r="48.62" transform="translate(296.53 1310.56) rotate(-45)"/><path class="cls-4" d="M1770.41,324.78c-1-5.64-4.14-20.75-21.61-20.56-21.83.23-30.54,6.77-42.84-10-9.84-13.41-20.56-7.88-22.18-11.2"/><rect class="cls-1" x="1701.22" y="307.47" width="6.05" height="6.05" transform="translate(376.74 1423.42) rotate(-50.3)"/><rect class="cls-1" x="1741.03" y="319.54" width="6.05" height="6.05" transform="translate(381.83 1458.41) rotate(-50.3)"/><rect class="cls-1" x="1718.31" y="329.53" width="6.05" height="6.05" transform="translate(365.94 1444.54) rotate(-50.3)"/><path class="cls-1" d="M1771.92,494.26q15.39,12.78,18.95,29.13t-4.5,32.69l-17.25-14.32a29.17,29.17,0,0,0,.31-17.46q-2.4-8.49-10.32-15.07a27.86,27.86,0,0,0-30.39-4,46.65,46.65,0,0,0-23.52,28.32,27.91,27.91,0,0,0,9.48,29.14q7.93,6.59,16.72,7.38a29.17,29.17,0,0,0,17.1-3.52l17.26,14.32q-14.6,10.94-31.31,10.44t-32.11-13.27q-11.77-9.78-16.52-22.57a48.15,48.15,0,0,1-1.6-26.53,60.93,60.93,0,0,1,13.11-25.75q10.15-12.24,23-17.74a47.16,47.16,0,0,1,26.28-3.19Q1760,484.4,1771.92,494.26ZM1781.07,621l27.63,22.94-10.45,12.59-44.07-36.59,68.33-82.3L1839,551.29Zm100.88-12-17.71,21.33,29.15,24.2-10.45,12.59L1853.79,643l-18.39,22.15,32.64,27.1-10.93,13.17L1808,664.65l68.33-82.3,49.07,40.74-10.83,13.06Zm51.2,131.51-33-27.39-19.57,11.71-17.37-14.42,97.86-56.2,18.77,15.58-37.36,106.43-17.37-14.42Zm5.92-16.15,16.72-44.81-41,24.68Zm82,117.1-16.44-13.64,9.62-86.54-46.46,55.95-16.43-13.64,68.32-82.3L2036.12,715l-10,87L2073,745.57l16.44,13.64Zm151.4-13.33-68.33,82.3-16.56-13.75L2117.3,861l-35.21-29.23-29.71,35.79-16.44-13.65,68.33-82.3,16.44,13.65L2093,818.55l35.2,29.22,27.68-33.34Zm75,180,27.63,22.94-10.45,12.59-44.07-36.58,68.33-82.3,16.44,13.64Zm111.72-25-68.32,82.3-16.44-13.65,68.33-82.3Zm52.74,42.4q15.39,12.78,18.95,29.12t-4.5,32.7l-17.25-14.33a29.17,29.17,0,0,0,.31-17.46q-2.4-8.49-10.33-15.07a27.89,27.89,0,0,0-30.38-4,46.63,46.63,0,0,0-23.52,28.33,27.91,27.91,0,0,0,9.48,29.14q7.93,6.57,16.72,7.38a29.18,29.18,0,0,0,17.1-3.53l17.25,14.33q-14.58,10.92-31.31,10.43t-32.11-13.26q-11.78-9.78-16.51-22.57a48.18,48.18,0,0,1-1.6-26.54,61,61,0,0,1,13.11-25.75q10.16-12.24,23-17.73a47.07,47.07,0,0,1,26.28-3.19Q2400,1015.73,2411.94,1025.61Z"/><path class="cls-1" d="M-290.29,426.43q14.69,13.59,17.35,30.1t-6.25,32.41l-16.46-15.24a29.11,29.11,0,0,0,1.26-17.41q-1.94-8.61-9.5-15.61A28.41,28.41,0,0,0-318,433.39a28.33,28.33,0,0,0-16,1.69,42.42,42.42,0,0,0-15.34,11,41.89,41.89,0,0,0-9.67,16,28.22,28.22,0,0,0-.45,16.1,28.34,28.34,0,0,0,8.34,13.51q7.58,7,16.3,8.27a29.13,29.13,0,0,0,17.27-2.6l16.45,15.24q-15.15,10.13-31.83,8.73t-31.34-15q-11.23-10.39-15.27-23.43a48.11,48.11,0,0,1-.17-26.58,60.88,60.88,0,0,1,14.47-25q10.81-11.69,23.92-16.47a47.07,47.07,0,0,1,26.42-1.77Q-301.63,415.93-290.29,426.43Zm2.3,127,26.35,24.4-11.11,12-42-38.91,72.67-78.5L-226.43,487ZM-186.61,547l-18.83,20.35,27.79,25.73-11.11,12-27.8-25.73-19.56,21.12L-205,629.28l-11.64,12.57-46.8-43.34L-190.76,520l46.81,43.33-11.53,12.45Zm44,134.08L-174,651.93l-20.17,10.64-16.57-15.33L-110,596.39-92.14,613l-43,104.26-16.56-15.34Zm6.78-15.81,19.11-43.83-42.23,22.43Zm75.56,121.36L-75.91,772.1l14.27-85.89L-111,739.58l-15.68-14.52,72.67-78.49,15.68,14.51-14.68,86.34,49.81-53.81,15.68,14.51Zm151.9-5.14L19,860,3.2,845.34l31.6-34.13L1.22,780.13l-31.6,34.13L-46,799.75l72.67-78.5,15.67,14.52L12.85,767.56l33.58,31.09,29.44-31.8Zm65.19,183.82,26.35,24.39-11.11,12-42-38.9,72.67-78.5L218.4,898.8Zm112.91-18.94-72.67,78.49-15.68-14.51,72.67-78.5Zm50.37,45.18q14.67,13.59,17.35,30.1T331.22,1054l-16.45-15.23a29.3,29.3,0,0,0,1.26-17.42q-1.95-8.61-9.5-15.61a27.91,27.91,0,0,0-30.13-5.59,46.6,46.6,0,0,0-25,27,27.87,27.87,0,0,0,7.89,29.61q7.56,7,16.29,8.27a29.11,29.11,0,0,0,17.27-2.59l16.46,15.23q-15.15,10.13-31.83,8.73t-31.35-15q-11.22-10.4-15.27-23.42a48.15,48.15,0,0,1-.16-26.59,60.84,60.84,0,0,1,14.47-25Q256,984.79,269.08,980a47,47,0,0,1,26.41-1.77Q308.8,981,320.13,991.53Z"/><circle class="cls-2" cx="109.1" cy="870.32" r="62.35"/><circle class="cls-3" cx="109.13" cy="871.04" r="48.62" transform="translate(-583.95 332.29) rotate(-45)"/><path class="cls-4" d="M147.75,900.61c-.69-5.69-3-21-20.47-21.7C105.47,878,96.42,884,85,866.61c-9.1-13.93-20.1-9-21.54-12.38"/><rect class="cls-1" x="79.42" y="879.75" width="6.05" height="6.05" transform="translate(-621.36 343.57) rotate(-47.21)"/><rect class="cls-1" x="118.52" y="893.95" width="6.05" height="6.05" transform="translate(-619.24 376.82) rotate(-47.21)"/><rect class="cls-1" x="95.3" y="902.7" width="6.05" height="6.05" transform="translate(-633.11 362.58) rotate(-47.21)"/><path class="cls-1" d="M-93.39-188.48q15.39,12.76,19,29.12t-4.5,32.69L-96.19-141a29.25,29.25,0,0,0,.32-17.46q-2.41-8.49-10.33-15.07A28.28,28.28,0,0,0-120.69-180a28.27,28.27,0,0,0-15.9,2.55,42.17,42.17,0,0,0-14.72,11.8,41.86,41.86,0,0,0-8.8,16.52,28.37,28.37,0,0,0,.42,16.11,28.38,28.38,0,0,0,9.06,13q7.94,6.58,16.72,7.38a29.1,29.1,0,0,0,17.1-3.52l17.26,14.32q-14.6,10.94-31.31,10.44T-163-104.67q-11.78-9.76-16.52-22.57a48.14,48.14,0,0,1-1.6-26.53A61,61,0,0,1-168-179.52q10.15-12.24,23-17.73a47.08,47.08,0,0,1,26.28-3.2Q-105.29-198.35-93.39-188.48Zm9.15,126.73,27.63,22.94L-67.06-26.22-111.13-62.8l68.33-82.31,16.44,13.65Zm100.89-12L-1.07-52.37l29.15,24.2L17.63-15.58l-29.15-24.2L-29.91-17.63,2.74,9.47-8.2,22.64-57.28-18.1l68.33-82.3L60.13-59.66,49.29-46.6ZM67.84,57.81l-33-27.39L15.28,42.13-2.09,27.71l97.86-56.2,18.77,15.58L77.18,93.52,59.81,79.1Zm5.92-16.15L90.48-3.15l-41,24.68Zm82,117.1-16.44-13.64,9.62-86.54-46.45,56L86.05,100.89l68.32-82.3,16.44,13.64-10,87,46.84-56.42,16.44,13.64Zm151.4-13.33-68.33,82.3L222.28,214,252,178.2,216.78,149l-29.71,35.79-16.44-13.65L239,88.81l16.44,13.65L227.72,135.8,262.92,165l27.68-33.34Zm75,180L409.8,348.4,399.35,361l-44.06-36.58,68.32-82.3,16.44,13.64Zm111.73-25-68.33,82.3-16.44-13.65,68.33-82.3Zm52.73,42.4q15.39,12.78,19,29.12t-4.5,32.7l-17.25-14.33a29.17,29.17,0,0,0,.31-17.46q-2.4-8.49-10.33-15.07a27.89,27.89,0,0,0-30.38-4,46.63,46.63,0,0,0-23.52,28.33,27.91,27.91,0,0,0,9.48,29.14q7.94,6.59,16.72,7.38a29.1,29.1,0,0,0,17.1-3.53l17.26,14.33q-14.6,10.92-31.31,10.43T477,426.68q-11.76-9.78-16.51-22.57a48.18,48.18,0,0,1-1.6-26.54A61,61,0,0,1,472,351.82q10.15-12.24,23-17.73a47.07,47.07,0,0,1,26.28-3.19Q534.74,333,546.63,342.86Z"/><circle class="cls-2" cx="329.37" cy="233.22" r="62.35"/><circle class="cls-3" cx="329.44" cy="233.93" r="48.62" transform="translate(-68.92 301.46) rotate(-45)"/><path class="cls-4" d="M369.6,261.37c-1-5.64-4.15-20.75-21.61-20.57-21.84.24-30.54,6.78-42.85-10-9.84-13.42-20.55-7.89-22.17-11.2"/><rect class="cls-1" x="300.4" y="244.06" width="6.05" height="6.05" transform="translate(-80.5 322.72) rotate(-50.3)"/><rect class="cls-1" x="340.21" y="256.13" width="6.05" height="6.05" transform="translate(-75.4 357.71) rotate(-50.3)"/><rect class="cls-1" x="317.5" y="266.12" width="6.05" height="6.05" transform="translate(-91.3 343.84) rotate(-50.3)"/><path class="cls-1" d="M260.36-166q15.38,12.78,18.94,29.12t-4.49,32.7l-17.26-14.33a29.17,29.17,0,0,0,.32-17.46q-2.4-8.49-10.33-15.07a28.41,28.41,0,0,0-14.48-6.51A28.29,28.29,0,0,0,217.15-155a42.34,42.34,0,0,0-14.72,11.8,41.93,41.93,0,0,0-8.79,16.53,28.25,28.25,0,0,0,.42,16.1,28.36,28.36,0,0,0,9.06,13Q211-91,219.84-90.19a29.13,29.13,0,0,0,17.1-3.53l17.25,14.33Q239.61-68.47,222.88-69T190.77-82.22Q179-92,174.26-104.79a48.09,48.09,0,0,1-1.6-26.54,60.91,60.91,0,0,1,13.1-25.75q10.17-12.24,23-17.73A47.07,47.07,0,0,1,235-178Q248.47-175.92,260.36-166ZM269.51-39.3l27.63,22.93L286.69-3.78,242.62-40.36,311-122.66,327.38-109Zm100.88-12L352.68-29.92,381.82-5.73,371.37,6.86,342.23-17.33,323.84,4.82l32.64,27.1L345.54,45.09,296.47,4.34,364.79-78l49.08,40.75L403-24.16ZM421.58,80.25l-33-27.39L369,64.58,351.65,50.16,449.51-6,468.28,9.53,430.92,116l-17.37-14.42Zm5.93-16.15,16.72-44.8L403.26,44Zm82,117.11-16.43-13.65L502.68,81l-46.45,56-16.44-13.65L508.12,41l16.44,13.65-10,87,46.84-56.42,16.44,13.65Zm151.4-13.34-68.33,82.3L576,236.43l29.71-35.79-35.2-29.23L540.82,207.2l-16.44-13.64,68.33-82.3,16.43,13.64-27.68,33.34,35.21,29.23,27.68-33.34Zm75,180,27.63,22.94L753.1,383.44,709,346.86l68.33-82.31,16.43,13.65Zm111.72-25-68.33,82.3-16.43-13.64,68.32-82.3Zm52.73,42.4q15.39,12.78,19,29.13t-4.5,32.69L897.57,412.8a29.17,29.17,0,0,0,.32-17.46q-2.4-8.49-10.33-15.07a27.85,27.85,0,0,0-30.39-4,42.34,42.34,0,0,0-14.72,11.8,41.83,41.83,0,0,0-8.79,16.52,27.86,27.86,0,0,0,9.48,29.14q7.92,6.59,16.71,7.38A29.14,29.14,0,0,0,877,437.63L894.21,452q-14.58,10.94-31.31,10.44t-32.11-13.27a53.25,53.25,0,0,1-16.51-22.57,48.05,48.05,0,0,1-1.6-26.53,60.8,60.8,0,0,1,13.1-25.75q10.17-12.24,23-17.74a47.16,47.16,0,0,1,26.28-3.19Q888.49,355.44,900.37,365.3Z"/><circle class="cls-2" cx="683.11" cy="255.66" r="62.35"/><circle class="cls-3" cx="683.18" cy="256.37" r="48.62" transform="translate(18.82 558.17) rotate(-45)"/><path class="cls-4" d="M723.34,283.81c-1-5.64-4.14-20.75-21.61-20.56-21.83.23-30.54,6.77-42.84-10-9.84-13.42-20.56-7.88-22.18-11.2"/><rect class="cls-1" x="654.15" y="266.5" width="6.05" height="6.05" transform="translate(30.02 603) rotate(-50.3)"/><rect class="cls-1" x="693.96" y="278.57" width="6.05" height="6.05" transform="translate(35.11 637.99) rotate(-50.3)"/><rect class="cls-1" x="671.24" y="288.56" width="6.05" height="6.05" transform="translate(19.22 624.12) rotate(-50.3)"/><path class="cls-1" d="M647.43-139.9q15.39,12.78,19,29.12t-4.5,32.7L644.63-92.4a29.17,29.17,0,0,0,.31-17.46q-2.4-8.49-10.32-15.08a28.45,28.45,0,0,0-14.49-6.51,28.45,28.45,0,0,0-15.9,2.55,42.2,42.2,0,0,0-14.72,11.81,41.86,41.86,0,0,0-8.8,16.52,28.33,28.33,0,0,0,.42,16.1,28.36,28.36,0,0,0,9.06,13q7.93,6.59,16.72,7.38A29.17,29.17,0,0,0,624-67.57l17.26,14.32Q626.67-42.31,610-42.81T577.85-56.08q-11.77-9.78-16.52-22.57a48.15,48.15,0,0,1-1.6-26.53,60.93,60.93,0,0,1,13.11-25.75q10.15-12.24,23-17.74a47.07,47.07,0,0,1,26.28-3.19Q635.53-149.77,647.43-139.9Zm9.15,126.74L684.21,9.78,673.76,22.37,629.69-14.22,698-96.52l16.44,13.65ZM757.46-25.11,739.75-3.78l29.15,24.2L758.45,33,729.3,8.81,710.91,31l32.64,27.1L732.62,71.23,683.54,30.49l68.33-82.3,49.07,40.74L790.11,2Zm51.2,131.51L775.67,79,756.1,90.72,738.73,76.3l97.86-56.2,18.77,15.58L818,142.11l-17.37-14.42Zm5.92-16.15L831.3,45.44l-41,24.67Zm82,117.1-16.44-13.64,9.62-86.54-46.46,56-16.43-13.64,68.32-82.3,16.44,13.64-10,87,46.84-56.43,16.44,13.65ZM1048,194l-68.33,82.31L963.1,262.57l29.71-35.78L957.6,197.56l-29.71,35.79L911.45,219.7l68.33-82.3L996.22,151l-27.68,33.34,35.2,29.23,27.68-33.34Zm75,180L1150.62,397l-10.45,12.59L1096.1,373l68.33-82.3,16.44,13.64Zm111.72-25-68.32,82.3L1150,417.7l68.33-82.3Zm52.74,42.4q15.39,12.76,19,29.12t-4.5,32.7l-17.25-14.33a29.17,29.17,0,0,0,.31-17.46q-2.4-8.49-10.33-15.07a27.89,27.89,0,0,0-30.38-4,42.17,42.17,0,0,0-14.72,11.8,41.7,41.7,0,0,0-8.8,16.53,27.91,27.91,0,0,0,9.48,29.14q7.93,6.57,16.72,7.38a29.18,29.18,0,0,0,17.1-3.53l17.25,14.33Q1266.7,489,1250,488.53t-32.11-13.27a53.25,53.25,0,0,1-16.51-22.57,48.14,48.14,0,0,1-1.6-26.53,61,61,0,0,1,13.11-25.75q10.16-12.24,23-17.73a47.07,47.07,0,0,1,26.28-3.19Q1275.55,381.58,1287.45,391.45Z"/><circle class="cls-2" cx="1070.19" cy="281.8" r="62.35"/><circle class="cls-3" cx="1070.25" cy="282.51" r="48.62" transform="translate(113.7 839.53) rotate(-45)"/><path class="cls-4" d="M1110.42,310c-1-5.63-4.15-20.75-21.62-20.56-21.83.23-30.53,6.77-42.84-10-9.84-13.41-20.55-7.88-22.17-11.19"/><rect class="cls-1" x="1041.22" y="292.65" width="6.05" height="6.05" transform="translate(149.73 910.26) rotate(-50.3)"/><rect class="cls-1" x="1081.03" y="304.72" width="6.05" height="6.05" transform="translate(154.83 945.25) rotate(-50.3)"/><rect class="cls-1" x="1058.31" y="314.7" width="6.05" height="6.05" transform="translate(138.93 931.38) rotate(-50.3)"/><path class="cls-1" d="M1111.92,479.44q15.39,12.76,18.95,29.12t-4.5,32.69l-17.25-14.32a29.17,29.17,0,0,0,.32-17.46q-2.4-8.49-10.33-15.07a27.9,27.9,0,0,0-30.39-4,42.25,42.25,0,0,0-14.72,11.8,41.83,41.83,0,0,0-8.79,16.52,27.85,27.85,0,0,0,9.48,29.14q7.92,6.58,16.71,7.38a29.14,29.14,0,0,0,17.11-3.52l17.25,14.32q-14.58,10.93-31.31,10.44t-32.11-13.27a53.25,53.25,0,0,1-16.51-22.57,48,48,0,0,1-1.6-26.53,60.85,60.85,0,0,1,13.1-25.75q10.17-12.24,23-17.73a47.08,47.08,0,0,1,26.28-3.2Q1100,469.57,1111.92,479.44Zm9.16,126.73,27.63,22.94-10.46,12.59-44.06-36.58,68.32-82.31L1179,536.46ZM1222,594.22l-17.71,21.33,29.14,24.2-10.45,12.59-29.14-24.2-18.39,22.15,32.64,27.1-10.94,13.17L1148,649.82l68.33-82.3,49.08,40.74-10.84,13.06Zm51.19,131.51-33-27.39-19.57,11.71-17.37-14.42,97.86-56.2L1319.85,655l-37.36,106.43L1265.12,747Zm5.93-16.15,16.71-44.81-41,24.68Zm82,117.1L1344.64,813l9.61-86.54-46.45,56-16.44-13.65,68.33-82.3,16.43,13.64-10,87L1413,730.74l16.44,13.64Zm151.4-13.33-68.33,82.3-16.55-13.74,29.71-35.79-35.2-29.23-29.72,35.79L1376,839l68.32-82.3,16.44,13.65L1433,803.72l35.21,29.22,27.68-33.34Zm75,180,27.63,22.93-10.46,12.59-44.06-36.58,68.32-82.3,16.44,13.65Zm111.72-25-68.33,82.3L1614.44,1037l68.33-82.3Zm52.73,42.4q15.39,12.78,19,29.12t-4.5,32.7l-17.25-14.33a29.17,29.17,0,0,0,.32-17.46q-2.4-8.49-10.33-15.07a27.91,27.91,0,0,0-30.39-4,46.63,46.63,0,0,0-23.52,28.33,27.89,27.89,0,0,0,9.49,29.14q7.92,6.59,16.71,7.38a29.15,29.15,0,0,0,17.11-3.53l17.25,14.33q-14.6,10.92-31.31,10.43t-32.11-13.26q-11.77-9.78-16.51-22.57a48.18,48.18,0,0,1-1.61-26.54,61,61,0,0,1,13.11-25.75q10.15-12.24,23-17.73a47.09,47.09,0,0,1,26.28-3.19Q1740.06,1000.91,1751.94,1010.78Z"/><circle class="cls-2" cx="1534.68" cy="901.14" r="62.35"/><circle class="cls-3" cx="1534.75" cy="901.85" r="48.62" transform="translate(-188.18 1349.38) rotate(-45)"/><path class="cls-4" d="M1574.91,929.29c-1-5.64-4.15-20.75-21.61-20.57-21.83.24-30.54,6.78-42.84-10-9.85-13.42-20.56-7.89-22.18-11.2"/><rect class="cls-1" x="1505.72" y="911.98" width="6.05" height="6.05" transform="translate(-158.99 1491.37) rotate(-50.3)"/><rect class="cls-1" x="1545.53" y="924.05" width="6.05" height="6.05" transform="translate(-153.9 1526.36) rotate(-50.3)"/><rect class="cls-1" x="1522.81" y="934.04" width="6.05" height="6.05" transform="translate(-169.79 1512.49) rotate(-50.3)"/><path class="cls-1" d="M1418.17,471.82q15.39,12.78,18.95,29.12t-4.49,32.7l-17.26-14.33a29.17,29.17,0,0,0,.32-17.46q-2.4-8.49-10.33-15.07a27.9,27.9,0,0,0-30.39-4,42.34,42.34,0,0,0-14.72,11.8,41.87,41.87,0,0,0-8.79,16.53,27.86,27.86,0,0,0,9.48,29.14q7.92,6.59,16.71,7.38a29.23,29.23,0,0,0,17.11-3.53L1412,558.47q-14.58,10.92-31.31,10.43t-32.11-13.26q-11.77-9.78-16.51-22.57a48.09,48.09,0,0,1-1.6-26.54,60.91,60.91,0,0,1,13.1-25.75q10.17-12.24,23-17.73a47.07,47.07,0,0,1,26.28-3.19Q1406.29,461.95,1418.17,471.82Zm9.16,126.74L1455,621.49l-10.46,12.59-44.06-36.58,68.33-82.3,16.43,13.64Zm100.88-12-17.71,21.34,29.14,24.19-10.45,12.59-29.14-24.19-18.39,22.15,32.64,27.09L1503.36,683l-49.07-40.75,68.32-82.3,49.08,40.75-10.84,13.05Zm51.19,131.51-33-27.39-19.57,11.72L1509.47,688l97.86-56.21,18.77,15.58-37.36,106.44-17.37-14.42Zm5.93-16.15,16.71-44.8-41,24.67Zm82,117.11-16.43-13.65,9.61-86.54-46.45,56-16.44-13.65,68.33-82.3,16.44,13.65-10,87,46.84-56.42,16.44,13.65Zm151.4-13.34L1750.39,888l-16.55-13.74,29.71-35.79-35.2-29.23-29.72,35.79-16.43-13.64,68.32-82.31L1767,762.76l-27.68,33.34,35.21,29.23L1802.17,792Zm75,180,27.63,22.94-10.46,12.59-44.06-36.59,68.33-82.3,16.43,13.65Zm111.72-25-68.33,82.3-16.43-13.64,68.32-82.3Zm52.73,42.4q15.39,12.78,18.95,29.13t-4.5,32.69l-17.25-14.32a29.17,29.17,0,0,0,.32-17.46q-2.4-8.49-10.33-15.08a27.88,27.88,0,0,0-30.39-4,46.65,46.65,0,0,0-23.52,28.32,27.89,27.89,0,0,0,9.49,29.14q7.92,6.58,16.71,7.38a29.22,29.22,0,0,0,17.11-3.52l17.25,14.32q-14.58,10.93-31.31,10.44T1988.61,1087q-11.77-9.78-16.51-22.57a48.05,48.05,0,0,1-1.6-26.53,60.8,60.8,0,0,1,13.1-25.75q10.17-12.24,23-17.74a47.18,47.18,0,0,1,26.28-3.19Q2046.31,993.3,2058.19,1003.16Z"/><circle class="cls-2" cx="1840.93" cy="893.52" r="62.35"/><circle class="cls-3" cx="1841" cy="894.23" r="48.62" transform="translate(-93.1 1563.7) rotate(-45)"/><path class="cls-4" d="M1881.16,921.67c-1-5.64-4.15-20.75-21.61-20.56-21.83.23-30.54,6.77-42.84-10-9.84-13.42-20.56-7.89-22.18-11.2"/><rect class="cls-1" x="1811.97" y="904.36" width="6.05" height="6.05" transform="translate(-42.5 1724.25) rotate(-50.3)"/><rect class="cls-1" x="1851.78" y="916.43" width="6.05" height="6.05" transform="translate(-37.41 1759.24) rotate(-50.3)"/><rect class="cls-1" x="1829.06" y="926.42" width="6.05" height="6.05" transform="translate(-53.3 1745.37) rotate(-50.3)"/><path class="cls-1" d="M1661.17-102.62q15.39,12.77,18.95,29.12t-4.5,32.69l-17.25-14.32a29.25,29.25,0,0,0,.32-17.46q-2.42-8.49-10.33-15.07a28.28,28.28,0,0,0-14.49-6.51,28.27,28.27,0,0,0-15.9,2.55,42.17,42.17,0,0,0-14.72,11.8,41.83,41.83,0,0,0-8.8,16.53,28.34,28.34,0,0,0,.42,16.1,28.33,28.33,0,0,0,9.06,13q7.93,6.58,16.72,7.38a29.1,29.1,0,0,0,17.1-3.52L1655-16Q1640.42-5,1623.7-5.54t-32.11-13.27q-11.77-9.77-16.52-22.57a48.14,48.14,0,0,1-1.6-26.53,61,61,0,0,1,13.11-25.75q10.15-12.24,23-17.73a47.08,47.08,0,0,1,26.28-3.2Q1649.28-112.49,1661.17-102.62Zm9.15,126.73L1698,47.05,1687.5,59.64l-44.06-36.58,68.32-82.3L1728.2-45.6Zm100.89-11.95L1753.5,33.49l29.14,24.2-10.45,12.59L1743,46.08l-18.39,22.15,32.65,27.1-10.94,13.17-49.08-40.74,68.33-82.3,49.08,40.74-10.84,13.06Zm51.19,131.51-33-27.39L1769.84,128l-17.37-14.43,97.86-56.2L1869.1,73l-37.36,106.44L1814.37,165Zm5.92-16.15L1845,82.71l-41,24.68Zm82,117.1L1893.88,231l9.62-86.54-46.45,56-16.44-13.65,68.33-82.3,16.43,13.64-10,87,46.84-56.42,16.44,13.64Zm151.4-13.33-68.33,82.3-16.55-13.74,29.71-35.79-35.21-29.23-29.71,35.79L1925.19,257l68.33-82.3L2010,188.32l-27.68,33.34,35.2,29.23,27.68-33.34Zm75,180,27.63,22.93-10.45,12.59-44.06-36.58,68.32-82.3,16.44,13.65Zm111.73-25-68.33,82.3L2163.69,455l68.33-82.3Zm52.73,42.4q15.39,12.78,18.95,29.12t-4.5,32.7l-17.25-14.33a29.17,29.17,0,0,0,.31-17.46q-2.4-8.49-10.33-15.07a27.89,27.89,0,0,0-30.38-4,46.63,46.63,0,0,0-23.52,28.33,27.91,27.91,0,0,0,9.48,29.14q7.93,6.58,16.72,7.38a29.17,29.17,0,0,0,17.1-3.52L2295,515.37q-14.59,10.93-31.31,10.43t-32.12-13.26q-11.76-9.78-16.51-22.57a48.18,48.18,0,0,1-1.6-26.54,61,61,0,0,1,13.11-25.74q10.16-12.26,23-17.74a47.07,47.07,0,0,1,26.28-3.19Q2289.3,418.85,2301.19,428.72Z"/><path class="cls-1" d="M-401-170.46q14.69,13.59,17.35,30.1t-6.25,32.41l-16.46-15.24a29.11,29.11,0,0,0,1.26-17.41q-1.94-8.61-9.5-15.61a28.35,28.35,0,0,0-14.11-7.28,28.24,28.24,0,0,0-16,1.69,42.07,42.07,0,0,0-15.33,11,41.81,41.81,0,0,0-9.68,16,28.31,28.31,0,0,0-.45,16.1,28.31,28.31,0,0,0,8.35,13.51q7.56,7,16.29,8.27a29.2,29.2,0,0,0,17.27-2.59l16.45,15.23Q-427-74.14-443.69-75.54t-31.35-15q-11.23-10.4-15.27-23.43a48.11,48.11,0,0,1-.17-26.58,60.86,60.86,0,0,1,14.48-25q10.8-11.68,23.91-16.47a47.07,47.07,0,0,1,26.42-1.77Q-412.38-181-401-170.46Zm2.31,127.05L-372.38-19-383.5-7l-42-38.91,72.67-78.49,15.68,14.51Zm101.37-6.49-18.83,20.34L-288.4-3.83l-11.11,12-27.8-25.73L-346.86,3.57l31.13,28.82L-327.36,45-374.17,1.62l72.67-78.49,46.8,43.33-11.52,12.46Zm44,134.07L-284.8,55.05-305,65.69l-16.57-15.34L-220.79-.49l17.9,16.57-43.05,104.26L-262.5,105Zm6.79-15.8,19.11-43.84L-269.67,47ZM-171,189.73l-15.67-14.52,14.27-85.89-49.41,53.37-15.67-14.52,72.66-78.49,15.68,14.51-14.68,86.34L-114,96.72l15.68,14.51Zm151.9-5.15-72.67,78.49-15.79-14.61,31.6-34.14-33.58-31.08-31.59,34.13-15.68-14.51,72.67-78.5,15.67,14.52-29.43,31.8,33.57,31.08L-34.88,170ZM46.1,368.4l26.35,24.4-11.11,12-42-38.9L92,287.4l15.67,14.52ZM159,349.46,86.34,428,70.67,413.44,143.33,335Zm50.37,45.18q14.67,13.59,17.35,30.11t-6.26,32.4L204,441.92a29.22,29.22,0,0,0,1.26-17.42q-2-8.61-9.5-15.61a27.9,27.9,0,0,0-30.13-5.59,46.58,46.58,0,0,0-25,27,27.87,27.87,0,0,0,7.89,29.61q7.56,7,16.3,8.27a29.18,29.18,0,0,0,17.26-2.6l16.46,15.23Q183.4,491,166.72,489.57t-31.35-15q-11.22-10.4-15.27-23.42a48.15,48.15,0,0,1-.16-26.59,61,61,0,0,1,14.47-25q10.82-11.67,23.92-16.47a47.21,47.21,0,0,1,26.41-1.77Q198,384.15,209.38,394.64Z"/><circle class="cls-2" cx="-1.65" cy="273.44" r="62.35"/><circle class="cls-3" cx="-1.62" cy="274.15" r="48.62" transform="translate(-194.33 79.15) rotate(-45)"/><path class="cls-4" d="M37,303.72c-.69-5.69-3-21-20.47-21.7-21.81-.95-30.86,5.11-42.24-12.3-9.1-13.92-20.1-9-21.54-12.37"/><rect class="cls-1" x="7.78" y="297.06" width="6.05" height="6.05" transform="translate(-216.75 104.15) rotate(-47.21)"/></svg>